<?xml version="1.0" encoding="utf-8" ?>
<svg baseProfile="full" height="640px" version="1.1" width="640px" xmlns="http://www.w3.org/2000/svg" xmlns:ev="http://www.w3.org/2001/xml-events" xmlns:xlink="http://www.w3.org/1999/xlink"><defs /><rect fill="rgb(34,34,34)" height="40px" width="40px" x="160px" y="0px" /><rect fill="rgb(34,34,34)" height="40px" width="40px" x="200px" y="0px" /><rect fill="rgb(34,34,34)" height="40px" width="40px" x="240px" y="0px" /><rect fill="rgb(34,34,34)" height="40px" width="40px" x="280px" y="0px" /><rect fill="rgb(34,34,34)" height="40px" width="40px" x="320px" y="0px" /><rect fill="rgb(34,34,34)" height="40px" width="40px" x="120px" y="40px" /><rect fill="rgb(218,78,56)" height="40px" width="40px" x="160px" y="40px" /><rect fill="rgb(238,142,46)" height="40px" width="40px" x="200px" y="40px" /><rect fill="rgb(238,142,46)" height="40px" width="40px" x="240px" y="40px" /><rect fill="rgb(238,142,46)" height="40px" width="40px" x="280px" y="40px" /><rect fill="rgb(238,142,46)" height="40px" width="40px" x="320px" y="40px" /><rect fill="rgb(34,34,34)" height="40px" width="40px" x="360px" y="40px" /><rect fill="rgb(34,34,34)" height="40px" width="40px" x="80px" y="80px" /><rect fill="rgb(218,78,56)" height="40px" width="40px" x="120px" y="80px" /><rect fill="rgb(34,34,34)" height="40px" width="40px" x="160px" y="80px" /><rect fill="rgb(218,78,56)" height="40px" width="40px" x="200px" y="80px" /><rect fill="rgb(218,78,56)" height="40px" width="40px" x="240px" y="80px" /><rect fill="rgb(238,142,46)" height="40px" width="40px" x="280px" y="80px" /><rect fill="rgb(238,142,46)" height="40px" width="40px" x="320px" y="80px" /><rect fill="rgb(238,142,46)" height="40px" width="40px" x="360px" y="80px" /><rect fill="rgb(34,34,34)" height="40px" width="40px" x="400px" y="80px" /><rect fill="rgb(34,34,34)" height="40px" width="40px" x="40px" y="120px" /><rect fill="rgb(218,78,56)" height="40px" width="40px" x="80px" y="120px" /><rect fill="rgb(34,34,34)" height="40px" width="40px" x="120px" y="120px" /><rect fill="rgb(34,34,34)" height="40px" width="40px" x="200px" y="120px" /><rect fill="rgb(218,78,56)" height="40px" width="40px" x="240px" y="120px" /><rect fill="rgb(218,78,56)" height="40px" width="40px" x="280px" y="120px" /><rect fill="rgb(238,142,46)" height="40px" width="40px" x="320px" y="120px" /><rect fill="rgb(238,142,46)" height="40px" width="40px" x="360px" y="120px" /><rect fill="rgb(34,34,34)" height="40px" width="40px" x="400px" y="120px" /><rect fill="rgb(34,34,34)" height="40px" width="40px" x="80px" y="160px" /><rect fill="rgb(34,34,34)" height="40px" width="40px" x="160px" y="160px" /><rect fill="rgb(34,34,34)" height="40px" width="40px" x="200px" y="160px" /><rect fill="rgb(34,34,34)" height="40px" width="40px" x="240px" y="160px" /><rect fill="rgb(218,78,56)" height="40px" width="40px" x="280px" y="160px" /><rect fill="rgb(218,78,56)" height="40px" width="40px" x="320px" y="160px" /><rect fill="rgb(34,34,34)" height="40px" width="40px" x="360px" y="160px" /><rect fill="rgb(34,34,34)" height="40px" width="40px" x="400px" y="160px" /><rect fill="rgb(34,34,34)" height="40px" width="40px" x="440px" y="160px" /><rect fill="rgb(34,34,34)" height="40px" width="40px" x="480px" y="160px" /><rect fill="rgb(34,34,34)" height="40px" width="40px" x="520px" y="160px" /><rect fill="rgb(34,34,34)" height="40px" width="40px" x="160px" y="200px" /><rect fill="rgb(114,214,206)" height="40px" width="40px" x="200px" y="200px" /><rect fill="rgb(114,214,206)" height="40px" width="40px" x="240px" y="200px" /><rect fill="rgb(114,214,206)" height="40px" width="40px" x="280px" y="200px" /><rect fill="rgb(114,214,206)" height="40px" width="40px" x="320px" y="200px" /><rect fill="rgb(114,214,206)" height="40px" width="40px" x="360px" y="200px" /><rect fill="rgb(114,214,206)" height="40px" width="40px" x="400px" y="200px" /><rect fill="rgb(253,247,237)" height="40px" width="40px" x="440px" y="200px" /><rect fill="rgb(253,247,237)" height="40px" width="40px" x="480px" y="200px" /><rect fill="rgb(34,34,34)" height="40px" width="40px" x="520px" y="200px" /><rect fill="rgb(34,34,34)" height="40px" width="40px" x="160px" y="240px" /><rect fill="rgb(114,214,206)" height="40px" width="40px" x="200px" y="240px" /><rect fill="rgb(114,214,206)" height="40px" width="40px" x="240px" y="240px" /><rect fill="rgb(65,112,137)" height="40px" width="40px" x="280px" y="240px" /><rect fill="rgb(65,112,137)" height="40px" width="40px" x="320px" y="240px" /><rect fill="rgb(65,112,137)" height="40px" width="40px" x="360px" y="240px" /><rect fill="rgb(65,112,137)" height="40px" width="40px" x="400px" y="240px" /><rect fill="rgb(65,112,137)" height="40px" width="40px" x="440px" y="240px" /><rect fill="rgb(65,112,137)" height="40px" width="40px" x="480px" y="240px" /><rect fill="rgb(34,34,34)" height="40px" width="40px" x="520px" y="240px" /><rect fill="rgb(34,34,34)" height="40px" width="40px" x="560px" y="240px" /><rect fill="rgb(34,34,34)" height="40px" width="40px" x="600px" y="240px" /><rect fill="rgb(34,34,34)" height="40px" width="40px" x="160px" y="280px" /><rect fill="rgb(114,214,206)" height="40px" width="40px" x="200px" y="280px" /><rect fill="rgb(114,214,206)" height="40px" width="40px" x="240px" y="280px" /><rect fill="rgb(65,112,137)" height="40px" width="40px" x="280px" y="280px" /><rect fill="rgb(114,214,206)" height="40px" width="40px" x="320px" y="280px" /><rect fill="rgb(114,214,206)" height="40px" width="40px" x="360px" y="280px" /><rect fill="rgb(114,214,206)" height="40px" width="40px" x="400px" y="280px" /><rect fill="rgb(114,214,206)" height="40px" width="40px" x="440px" y="280px" /><rect fill="rgb(114,214,206)" height="40px" width="40px" x="480px" y="280px" /><rect fill="rgb(253,247,237)" height="40px" width="40px" x="520px" y="280px" /><rect fill="rgb(253,247,237)" height="40px" width="40px" x="560px" y="280px" /><rect fill="rgb(34,34,34)" height="40px" width="40px" x="600px" y="280px" /><rect fill="rgb(34,34,34)" height="40px" width="40px" x="160px" y="320px" /><rect fill="rgb(114,214,206)" height="40px" width="40px" x="200px" y="320px" /><rect fill="rgb(114,214,206)" height="40px" width="40px" x="240px" y="320px" /><rect fill="rgb(65,112,137)" height="40px" width="40px" x="280px" y="320px" /><rect fill="rgb(114,214,206)" height="40px" width="40px" x="320px" y="320px" /><rect fill="rgb(65,112,137)" height="40px" width="40px" x="360px" y="320px" /><rect fill="rgb(114,214,206)" height="40px" width="40px" x="400px" y="320px" /><rect fill="rgb(65,112,137)" height="40px" width="40px" x="440px" y="320px" /><rect fill="rgb(114,214,206)" height="40px" width="40px" x="480px" y="320px" /><rect fill="rgb(65,112,137)" height="40px" width="40px" x="520px" y="320px" /><rect fill="rgb(253,247,237)" height="40px" width="40px" x="560px" y="320px" /><rect fill="rgb(34,34,34)" height="40px" width="40px" x="600px" y="320px" /><rect fill="rgb(34,34,34)" height="40px" width="40px" x="160px" y="360px" /><rect fill="rgb(114,214,206)" height="40px" width="40px" x="200px" y="360px" /><rect fill="rgb(114,214,206)" height="40px" width="40px" x="240px" y="360px" /><rect fill="rgb(65,112,137)" height="40px" width="40px" x="280px" y="360px" /><rect fill="rgb(114,214,206)" height="40px" width="40px" x="320px" y="360px" /><rect fill="rgb(65,112,137)" height="40px" width="40px" x="360px" y="360px" /><rect fill="rgb(114,214,206)" height="40px" width="40px" x="400px" y="360px" /><rect fill="rgb(65,112,137)" height="40px" width="40px" x="440px" y="360px" /><rect fill="rgb(114,214,206)" height="40px" width="40px" x="480px" y="360px" /><rect fill="rgb(65,112,137)" height="40px" width="40px" x="520px" y="360px" /><rect fill="rgb(253,247,237)" height="40px" width="40px" x="560px" y="360px" /><rect fill="rgb(34,34,34)" height="40px" width="40px" x="600px" y="360px" /><rect fill="rgb(34,34,34)" height="40px" width="40px" x="160px" y="400px" /><rect fill="rgb(114,214,206)" height="40px" width="40px" x="200px" y="400px" /><rect fill="rgb(114,214,206)" height="40px" width="40px" x="240px" y="400px" /><rect fill="rgb(65,112,137)" height="40px" width="40px" x="280px" y="400px" /><rect fill="rgb(114,214,206)" height="40px" width="40px" x="320px" y="400px" /><rect fill="rgb(65,112,137)" height="40px" width="40px" x="360px" y="400px" /><rect fill="rgb(114,214,206)" height="40px" width="40px" x="400px" y="400px" /><rect fill="rgb(65,112,137)" height="40px" width="40px" x="440px" y="400px" /><rect fill="rgb(114,214,206)" height="40px" width="40px" x="480px" y="400px" /><rect fill="rgb(65,112,137)" height="40px" width="40px" x="520px" y="400px" /><rect fill="rgb(253,247,237)" height="40px" width="40px" x="560px" y="400px" /><rect fill="rgb(34,34,34)" height="40px" width="40px" x="600px" y="400px" /><rect fill="rgb(34,34,34)" height="40px" width="40px" x="160px" y="440px" /><rect fill="rgb(114,214,206)" height="40px" width="40px" x="200px" y="440px" /><rect fill="rgb(114,214,206)" height="40px" width="40px" x="240px" y="440px" /><rect fill="rgb(65,112,137)" height="40px" width="40px" x="280px" y="440px" /><rect fill="rgb(114,214,206)" height="40px" width="40px" x="320px" y="440px" /><rect fill="rgb(114,214,206)" height="40px" width="40px" x="360px" y="440px" /><rect fill="rgb(114,214,206)" height="40px" width="40px" x="400px" y="440px" /><rect fill="rgb(114,214,206)" height="40px" width="40px" x="440px" y="440px" /><rect fill="rgb(114,214,206)" height="40px" width="40px" x="480px" y="440px" /><rect fill="rgb(253,247,237)" height="40px" width="40px" x="520px" y="440px" /><rect fill="rgb(253,247,237)" height="40px" width="40px" x="560px" y="440px" /><rect fill="rgb(34,34,34)" height="40px" width="40px" x="600px" y="440px" /><rect fill="rgb(34,34,34)" height="40px" width="40px" x="160px" y="480px" /><rect fill="rgb(114,214,206)" height="40px" width="40px" x="200px" y="480px" /><rect fill="rgb(114,214,206)" height="40px" width="40px" x="240px" y="480px" /><rect fill="rgb(65,112,137)" height="40px" width="40px" x="280px" y="480px" /><rect fill="rgb(65,112,137)" height="40px" width="40px" x="320px" y="480px" /><rect fill="rgb(65,112,137)" height="40px" width="40px" x="360px" y="480px" /><rect fill="rgb(65,112,137)" height="40px" width="40px" x="400px" y="480px" /><rect fill="rgb(65,112,137)" height="40px" width="40px" x="440px" y="480px" /><rect fill="rgb(65,112,137)" height="40px" width="40px" x="480px" y="480px" /><rect fill="rgb(34,34,34)" height="40px" width="40px" x="520px" y="480px" /><rect fill="rgb(34,34,34)" height="40px" width="40px" x="560px" y="480px" /><rect fill="rgb(34,34,34)" height="40px" width="40px" x="600px" y="480px" /><rect fill="rgb(34,34,34)" height="40px" width="40px" x="160px" y="520px" /><rect fill="rgb(114,214,206)" height="40px" width="40px" x="200px" y="520px" /><rect fill="rgb(114,214,206)" height="40px" width="40px" x="240px" y="520px" /><rect fill="rgb(114,214,206)" height="40px" width="40px" x="280px" y="520px" /><rect fill="rgb(114,214,206)" height="40px" width="40px" x="320px" y="520px" /><rect fill="rgb(114,214,206)" height="40px" width="40px" x="360px" y="520px" /><rect fill="rgb(114,214,206)" height="40px" width="40px" x="400px" y="520px" /><rect fill="rgb(114,214,206)" height="40px" width="40px" x="440px" y="520px" /><rect fill="rgb(253,247,237)" height="40px" width="40px" x="480px" y="520px" /><rect fill="rgb(34,34,34)" height="40px" width="40px" x="520px" y="520px" /><rect fill="rgb(34,34,34)" height="40px" width="40px" x="160px" y="560px" /><rect fill="rgb(65,112,137)" height="40px" width="40px" x="200px" y="560px" /><rect fill="rgb(65,112,137)" height="40px" width="40px" x="240px" y="560px" /><rect fill="rgb(65,112,137)" height="40px" width="40px" x="280px" y="560px" /><rect fill="rgb(65,112,137)" height="40px" width="40px" x="320px" y="560px" /><rect fill="rgb(65,112,137)" height="40px" width="40px" x="360px" y="560px" /><rect fill="rgb(65,112,137)" height="40px" width="40px" x="400px" y="560px" /><rect fill="rgb(65,112,137)" height="40px" width="40px" x="440px" y="560px" /><rect fill="rgb(114,214,206)" height="40px" width="40px" x="480px" y="560px" /><rect fill="rgb(34,34,34)" height="40px" width="40px" x="520px" y="560px" /></svg>